<svg xmlns="http://www.w3.org/2000/svg" viewBox="0 0 378.56 91.48">
    <defs>
        <style>.cls-1{fill:#ed1c24;}.cls-2{fill:#fbb03b;}.cls-3{fill:#fff;}</style>
    </defs>
    <title>open_logo_main</title>
    <g id="Layer_2" data-name="Layer 2">
        <g id="Layer_1-2" data-name="Layer 1">
            <path class="cls-1"
                  d="M82.76,21.8,71.63,32.92A29.24,29.24,0,0,1,74,44.5,29.5,29.5,0,1,1,44.5,15a29.19,29.19,0,0,1,11.57,2.37L67.2,6.24A44.53,44.53,0,1,0,82.76,21.8Z"/>
            <path class="cls-2"
                  d="M113.56,88h-14V14.5H84.4L73.2,25.7l-9.9-9.9L76.55,2.55a7,7,0,0,1,5-2h25.06a7,7,0,0,1,7,7Z"/>
            <rect class="cls-2" x="106.56" y="38.31" width="18.25" height="9"/>
            <path class="cls-3"
                  d="M161.9,30.9q-3.36,4.16-10.23,4.15T141.44,30.9a15.46,15.46,0,0,1-3.37-10,15.53,15.53,0,0,1,3.37-10q3.38-4.23,10.23-4.22t10.23,4.22a15.48,15.48,0,0,1,3.37,10A15.4,15.4,0,0,1,161.9,30.9Zm-5.56-3.85A10.09,10.09,0,0,0,158,20.88a10,10,0,0,0-1.63-6.15,6.18,6.18,0,0,0-9.39,0,10,10,0,0,0-1.65,6.15A10,10,0,0,0,147,27.05a6.16,6.16,0,0,0,9.39,0Z"/>
            <path class="cls-3"
                  d="M192.63,10.4q3.26,3.43,3.26,10.1,0,7-3.19,10.72a10.32,10.32,0,0,1-8.19,3.69,8.59,8.59,0,0,1-5.31-1.59,10.23,10.23,0,0,1-2.26-2.56V44.63h-6.88V7.54h6.66v3.93a11.1,11.1,0,0,1,2.41-2.73A8.89,8.89,0,0,1,184.68,7,10.51,10.51,0,0,1,192.63,10.4Zm-5.34,5a5,5,0,0,0-4.6-2.37,5.23,5.23,0,0,0-5.25,3.59,13.35,13.35,0,0,0-.74,4.84q0,4.63,2.49,6.51a5.64,5.64,0,0,0,3.5,1.1,5.09,5.09,0,0,0,4.48-2.24,10.45,10.45,0,0,0,1.54-6A10.37,10.37,0,0,0,187.29,15.4Z"/>
            <path class="cls-3"
                  d="M218.13,8.08a10.76,10.76,0,0,1,4.6,3.94,13,13,0,0,1,2.12,5.5,32.92,32.92,0,0,1,.23,5.28H205.7q.17,4,2.78,5.61a7.07,7.07,0,0,0,3.84,1,5.45,5.45,0,0,0,5.3-3.06h7.1a8.7,8.7,0,0,1-2.58,4.81q-3.57,3.88-10,3.88a14.54,14.54,0,0,1-9.38-3.27q-4-3.27-4.06-10.65,0-6.91,3.67-10.61a12.83,12.83,0,0,1,9.52-3.69A15.13,15.13,0,0,1,218.13,8.08Zm-10.4,6a7.18,7.18,0,0,0-1.86,4.12h12A5.87,5.87,0,0,0,216,14a6.14,6.14,0,0,0-4.13-1.43A5.51,5.51,0,0,0,207.73,14.09Z"/>
            <path class="cls-3"
                  d="M250.06,9.07q2.61,2.16,2.61,7.16V34.15h-7.13V18a7.51,7.51,0,0,0-.55-3.23,3.93,3.93,0,0,0-3.88-2.05,4.8,4.8,0,0,0-4.82,3,10.27,10.27,0,0,0-.68,4.06v14.4h-7V7.59h6.74v3.88a11.53,11.53,0,0,1,2.53-3,8.7,8.7,0,0,1,5.42-1.61A10.19,10.19,0,0,1,250.06,9.07Z"/>
            <path class="cls-3"
                  d="M140.41,58.08h-3.55V53.73h3.55v-7h4.3v7h4.35v4.35h-4.35V74.63a3.53,3.53,0,0,0,.75,2.05,1.89,1.89,0,0,0,1.3.5l.53,0,.57-.07c.2,0,.4-.06.6-.08s.4,0,.6,0v4c-.53,0-1.06.07-1.57.12s-1,.08-1.48.08a7.17,7.17,0,0,1-3.9-.93,4.07,4.07,0,0,1-1.7-3.22Z"/>
            <path class="cls-3"
                  d="M155.66,56.75Q158.51,53,164.41,53q6.1,0,8.55,3.57a18.17,18.17,0,0,1,3,7.83c.1.73.17,1.46.2,2.2s0,1.45,0,2.15H157c.1,3,.83,5.16,2.18,6.5a6.26,6.26,0,0,0,4.47,2h.45a8.13,8.13,0,0,0,4.18-1.55,8,8,0,0,0,2.87-3.8h4.35a8.45,8.45,0,0,1-3.3,6.4,13.89,13.89,0,0,1-7.75,2.6q-5.7-.21-8.4-3.13a13.6,13.6,0,0,1-3.45-6.42,13.35,13.35,0,0,1-.37-2.38,13.62,13.62,0,0,1,0-2.22A19.35,19.35,0,0,1,155.66,56.75Zm15.85,8a9.34,9.34,0,0,0-2.35-6.08,6.28,6.28,0,0,0-4.55-2.07h-.4a7,7,0,0,0-4.45,2.17,10.64,10.64,0,0,0-2.8,6Z"/>
            <path class="cls-3"
                  d="M183.64,56.35a11.59,11.59,0,0,1,8-3.37,13.85,13.85,0,0,1,1.95.15,11.6,11.6,0,0,1,2.2.55,9.87,9.87,0,0,1,6.45,9.15h-4.3a6.22,6.22,0,0,0-2-4.25,5.72,5.72,0,0,0-3.75-1.4,4.61,4.61,0,0,0-.52,0,4.21,4.21,0,0,0-.53.08,8.12,8.12,0,0,0-4.9,3.12q-2.21,2.67-2,7.53t2.28,7.25a6.49,6.49,0,0,0,4.62,2.3h.15a6.88,6.88,0,0,0,4.55-1.75,6.26,6.26,0,0,0,2.2-4.65h4.3a9.59,9.59,0,0,1-3.12,7.5,12.46,12.46,0,0,1-7.88,3l-1.15-.1a8.35,8.35,0,0,1-1.2-.2,11.86,11.86,0,0,1-6.62-4q-3-3.36-2.48-12.5A15.42,15.42,0,0,1,183.64,56.35Z"/>
            <path class="cls-3"
                  d="M206.56,43.13h4.35V56.88a9.7,9.7,0,0,1,3.4-2.85,11.56,11.56,0,0,1,4.3-1.25l.43,0a3.54,3.54,0,0,1,.47,0,9.12,9.12,0,0,1,5.38,1.7,7.29,7.29,0,0,1,2.92,5.25V80.13h-4.3V63.18q.11-.51.15-.93a7.83,7.83,0,0,0,.05-.82,4.61,4.61,0,0,0-1.52-3.85,5.63,5.63,0,0,0-3.58-1.2c-.23,0-.46,0-.67,0s-.45,0-.68.08a9,9,0,0,0-4.37,2.2,5.71,5.71,0,0,0-2,4.5V80.13h-4.35Z"/>
            <path class="cls-3"
                  d="M234.91,53.73h4.3v3.55c.3-1.1,1.28-2.07,2.95-2.9a12.75,12.75,0,0,1,5.4-1.35h.5a9,9,0,0,1,5.55,1.7c1.63,1.16,2.35,3.2,2.15,6.1v19.3h-4.3V61.63A4.06,4.06,0,0,0,250,58.2a5.31,5.31,0,0,0-3.35-1.12l-.63,0a6.17,6.17,0,0,0-.62.08,7.9,7.9,0,0,0-4.27,2.45,7.64,7.64,0,0,0-1.93,5.55V80.13h-4.3Z"/>
            <path class="cls-3"
                  d="M263.81,57.83q2.55-4.45,9.65-4.45c.3,0,.6,0,.9,0s.6,0,.9.08a11.94,11.94,0,0,1,6.9,3.8q3.15,3.24,3.15,10.65a17,17,0,0,1-.23,2.55,14.68,14.68,0,0,1-.82,3,13.49,13.49,0,0,1-3.6,5c-1.67,1.5-4.07,2.31-7.2,2.45q-5.59.3-8.9-2.78t-3.3-10.17A19.92,19.92,0,0,1,263.81,57.83ZM268.11,75A6.69,6.69,0,0,0,273,77.33h.15a7.24,7.24,0,0,0,5.37-2.85q2.43-2.81,2.08-7.75-.15-4.8-2.48-7.23A7,7,0,0,0,273,57.08a6.84,6.84,0,0,0-5.18,2.6q-2.32,2.59-2.17,7.85Q265.86,72.63,268.11,75Z"/>
            <path class="cls-3" d="M290.41,43.53h4.35v36.6h-4.35Z"/>
            <path class="cls-3"
                  d="M302.76,57.83q2.55-4.45,9.65-4.45c.3,0,.6,0,.9,0s.6,0,.9.08a11.94,11.94,0,0,1,6.9,3.8q3.15,3.24,3.15,10.65a17,17,0,0,1-.23,2.55,14.68,14.68,0,0,1-.82,3,13.72,13.72,0,0,1-3.6,5c-1.67,1.5-4.07,2.31-7.2,2.45q-5.61.3-8.9-2.78t-3.3-10.17A19.92,19.92,0,0,1,302.76,57.83ZM307.06,75a6.68,6.68,0,0,0,4.85,2.35h.15a7.27,7.27,0,0,0,5.37-2.85q2.43-2.81,2.08-7.75-.15-4.8-2.48-7.23a7,7,0,0,0-5.12-2.42,6.84,6.84,0,0,0-5.18,2.6q-2.33,2.59-2.17,7.85C304.72,70.93,305.56,73.41,307.06,75Z"/>
            <path class="cls-3"
                  d="M330.73,56.9q3-3.93,8.88-3.92a6.22,6.22,0,0,1,3.17.82,11.44,11.44,0,0,1,2.38,1.78c.23.23.44.45.62.67l.53.63V53.73h4.3v25.2q0,7.35-3.68,9.95a13.78,13.78,0,0,1-8.12,2.6,15.61,15.61,0,0,1-2-.15,17.43,17.43,0,0,1-2.4-.5,10.44,10.44,0,0,1-4-2.45,6.81,6.81,0,0,1-1.82-5.15l4.35,0a3.14,3.14,0,0,0,1.7,3,7.68,7.68,0,0,0,4.2,1.18h.42a2.8,2.8,0,0,0,.48,0,7.82,7.82,0,0,0,4.57-2.18c1.38-1.28,2.08-3.31,2.08-6.07v-.7a5.36,5.36,0,0,0-.05-.7,12.93,12.93,0,0,1-2.45,2,12,12,0,0,1-2.55,1.15,10.26,10.26,0,0,1-1.5.37,9.5,9.5,0,0,1-1.5.13,9.64,9.64,0,0,1-7.68-3.75,13.17,13.17,0,0,1-2.87-9.7Q327.76,60.82,330.73,56.9ZM334.66,75a5.83,5.83,0,0,0,4.45,2.6h.25a6.88,6.88,0,0,0,5-3,10.6,10.6,0,0,0,1.95-7.47q.09-4.75-1.95-7a6.1,6.1,0,0,0-4.65-2.3h-.3a6.91,6.91,0,0,0-4.63,2.4c-1.42,1.5-2.17,3.68-2.27,6.55C332.61,70.56,333.32,73.33,334.66,75Z"/>
            <path class="cls-3"
                  d="M356.51,90.38V86.43c.53.06,1,.13,1.45.2a8.81,8.81,0,0,0,1.2.1,3.16,3.16,0,0,0,2.45-1,11.09,11.09,0,0,0,1.8-4.15c0-.1.06-.21.1-.33a2.42,2.42,0,0,1,.1-.32L355,53.73h4.7l6.7,20.5,7.5-20.5h4.7l-12.2,32.7a7.06,7.06,0,0,1-2.28,3.2A7.45,7.45,0,0,1,361,91l-.63.07-.62,0a7.52,7.52,0,0,1-1.73-.2,6.18,6.18,0,0,1-1.52-.6Z"/>
        </g>
    </g>
</svg>